<svg width="16" height="32" viewBox="0 0 16 32" fill="none" xmlns="http://www.w3.org/2000/svg">
<path d="M15.5796 29.5153L3.28431 17.0227C3.01465 16.7501 2.8634 16.3822 2.8634 15.9988C2.8634 15.6154 3.01465 15.2474 3.28431 14.9748L15.5769 2.48225C15.8464 2.20799 15.9975 1.83884 15.9975 1.45431C15.9975 1.06978 15.8464 0.700639 15.5769 0.426374C15.4452 0.291319 15.2879 0.183987 15.1141 0.110701C14.9403 0.0374155 14.7536 -0.000340689 14.565 -0.000340689C14.3764 -0.000340689 14.1897 0.0374155 14.0159 0.110701C13.8421 0.183987 13.6847 0.291319 13.553 0.426374L1.26043 12.9163C0.45268 13.739 0.00012207 14.8458 0.00012207 15.9988C0.00012207 17.1517 0.45268 18.2586 1.26043 19.0813L13.553 31.5712C13.6847 31.7066 13.8423 31.8143 14.0163 31.8879C14.1904 31.9614 14.3774 31.9993 14.5663 31.9993C14.7552 31.9993 14.9423 31.9614 15.1163 31.8879C15.2903 31.8143 15.4479 31.7066 15.5796 31.5712C15.8491 31.2969 16.0001 30.9278 16.0001 30.5432C16.0001 30.1587 15.8491 29.7896 15.5796 29.5153Z" fill="white"/>
</svg>
