<svg width="16" height="32" viewBox="0 0 16 32" fill="none" xmlns="http://www.w3.org/2000/svg">
<path d="M0.420418 2.48421L12.7157 14.9768C12.9853 15.2494 13.1366 15.6173 13.1366 16.0007C13.1366 16.3842 12.9853 16.7521 12.7157 17.0247L0.423086 29.5173C0.153566 29.7915 0.00254536 30.1607 0.00254536 30.5452C0.00254536 30.9297 0.153566 31.2989 0.423086 31.5731C0.55475 31.7082 0.712116 31.8155 0.885911 31.8888C1.0597 31.9621 1.24641 31.9999 1.43503 31.9999C1.62364 31.9999 1.81035 31.9621 1.98414 31.8888C2.15793 31.8155 2.3153 31.7082 2.44696 31.5731L14.7396 19.0832C15.5473 18.2605 15.9999 17.1537 15.9999 16.0007C15.9999 14.8478 15.5473 13.7409 14.7396 12.9182L2.44696 0.428328C2.31526 0.292865 2.15773 0.185185 1.98369 0.111657C1.80965 0.0381283 1.62263 0.000244141 1.43369 0.000244141C1.24476 0.000244141 1.05774 0.0381283 0.883698 0.111657C0.709657 0.185185 0.552124 0.292865 0.420418 0.428328C0.150899 0.702593 -0.00012207 1.07174 -0.00012207 1.45627C-0.00012207 1.84079 0.150899 2.20994 0.420418 2.48421Z" fill="#EAECFD"/>
</svg>
